# xmcd
#
# Track frame offsets:
#	150
#	31089
#	66310
#	91238
#	111013
#	142514
#	153816
#	170450
#	205672
#	226464
#	249477
#
# Disc length: 3530 seconds
#
# Revision: 1
# Processed by: cddbd v1.5.2PL0 Copyright (c) Steve Scherf et al.
# Submitted via: audiograbber 1.83.01
#
DISCID=7e0dc80b
DTITLE=LEB I SOL - LIVE IN MACEDONIA 2
DYEAR=2006
DGENRE=
TTITLE0=BISTRA VODA
TTITLE1=JOVANO JOVANKE
TTITLE2=CUVAM NOC OD BUDNIH
TTITLE3=MAMURNI LJUDI
TTITLE4=KAO KAKAO
TTITLE5=SKOPJE
TTITLE6=CUKNI VO DRVO
TTITLE7=UCI ME MAJKO KARAJ ME
TTITLE8=A BRE MAKEDONCE
TTITLE9=SI ZALJUBIV
TTITLE10=COUNTRY
EXTD=
EXTT0=
EXTT1=
EXTT2=
EXTT3=
EXTT4=
EXTT5=
EXTT6=
EXTT7=
EXTT8=
EXTT9=
EXTT10=
PLAYORDER=
